<?xml version="1.0" encoding="utf-8"?>
<!-- Generator: Adobe Illustrator 24.3.0, SVG Export Plug-In . SVG Version: 6.00 Build 0)  -->
<svg version="1.1" id="Capa_1" xmlns="http://www.w3.org/2000/svg" xmlns:xlink="http://www.w3.org/1999/xlink" x="0px" y="0px"
	 viewBox="0 0 438.5 438.5" style="enable-background:new 0 0 438.5 438.5;" xml:space="preserve">
<style type="text/css">
	.st0{fill:#FFFFFF;}
</style>
<g id="XMLID_1_">
	<g>
		<path class="st0" d="M117.5,345c6.2,4.1,12.4,6.2,18.7,6.2c6.3,0,11.7-0.5,16.3-1.4c4.6-0.9,8.9-2.4,12.9-4.3
			c1.7-12.8,6.4-22.6,14-29.4c-10.8-1.1-20.6-2.9-29.3-5.1c-8.7-2.3-17.6-6-26.8-11.1c-9.2-5.1-16.9-11.5-23-19.1
			c-6.1-7.6-11.1-17.6-15-30c-3.9-12.4-5.8-26.7-5.8-42.8c0-23,7.5-42.6,22.5-58.8c-7-17.3-6.4-36.7,2-58.3
			c5.5-1.7,13.7-0.4,24.6,3.9c10.9,4.3,18.8,8,23.8,11c5.1,3,9.1,5.6,12.1,7.7c17.7-5,36-7.4,54.8-7.4c18.8,0,37.1,2.5,54.8,7.4
			l10.9-6.8c7.4-4.6,16.2-8.8,26.3-12.6c10.1-3.8,17.8-4.9,23.1-3.1c8.6,21.5,9.3,40.9,2.3,58.2c15,16.2,22.6,35.8,22.6,58.8
			c0,16.2-2,30.5-5.9,43c-3.9,12.5-8.9,22.5-15.1,30c-6.2,7.5-13.9,13.9-23.1,19c-9.2,5.1-18.2,8.9-26.8,11.1
			c-8.7,2.3-18.4,4-29.3,5.1c9.9,8.6,14.8,22.1,14.8,40.5v68.2l-108.8,0c0-0.6-0.1-7-0.2-19.4c-0.1-12.4-0.1-22.2-0.1-29.4l-6.6,1.1
			c-4.2,0.8-9.5,1.1-15.8,1c-6.4-0.1-13-0.8-19.8-2c-6.9-1.2-13.2-4.1-19.1-8.6c-5.9-4.5-10.1-10.3-12.6-17.6l-2.9-6.6
			c-1.9-4.4-4.9-9.2-9-14.6c-4.1-5.3-8.2-8.9-12.4-10.9l-2-1.4c-1.3-0.9-2.6-2.1-3.7-3.4c-1.1-1.3-2-2.7-2.6-4
			c-0.6-1.3-0.1-2.4,1.4-3.3c1.5-0.9,4.3-1.3,8.3-1.3l5.7,0.9c3.8,0.8,8.5,3,14.1,6.9c5.6,3.8,10.2,8.8,13.8,14.8
			C106,335,111.3,340.9,117.5,345z M125.1,352c-2.9-0.8-4.7-0.1-5.4,2c-0.8,2.1,0.5,3.5,3.7,4.3c2.9,1.1,4.7,0.6,5.4-1.7
			C129.3,354.5,128.1,353,125.1,352z M159.3,359.2c3.1-0.8,4.4-2.1,4-4c-0.4-2.1-2.1-3-5.1-2.6c-3.1,0.6-4.4,2-4,4.3
			S156.3,359.9,159.3,359.2z M142.2,361.2c3.1,0,4.6-1.1,4.6-3.1c0-2.5-1.6-3.5-4.9-3.1c-3,0-4.6,1-4.6,3.1
			C137.3,360.5,138.9,361.5,142.2,361.2z M112.5,349.5c1.5-1.5,1.1-3.3-1.1-5.4c-2.3-2.3-4.2-2.6-5.7-0.9c-1.7,1.5-1.3,3.3,1.1,5.4
			C109.1,350.9,111,351.2,112.5,349.5z M100.5,337.5c1.7-1.3,1.7-3.1,0-5.4c-1.5-2.5-3.1-3.1-4.8-1.7c-1.7,1-1.7,2.7,0,5.1
			C97.4,338,99,338.6,100.5,337.5z M91.9,324.6c1.3-0.9,1.1-2.5-0.6-4.6c-1.9-1.7-3.4-2-4.6-0.9c-1.3,1-1.1,2.5,0.6,4.6
			C89.3,325.7,90.8,326,91.9,324.6z M83.1,314.9c0.6-1.3-0.1-2.5-2-3.4c-1.9-0.6-3.1-0.4-3.7,0.6c-0.6,1.3,0.1,2.5,2,3.4
			C80.9,316.4,82.1,316.2,83.1,314.9z"/>
		<path d="M285.4,438.2l-129.8-0.1c2.1-0.3,4.2-1.5,6.3-3.7c2.1-2.2,3.1-5.4,3.1-9.6l108.8,0c0,3.2,0.5,5.9,1.4,7.9
			c1,2,2.5,3.4,4.6,4.1C281.9,437.6,283.7,438,285.4,438.2z"/>
		<path d="M275.2,432.7l10.1,5.6c-1.6-0.2-3.5-0.7-5.6-1.4C277.7,436,276.2,434.7,275.2,432.7z"/>
		<path d="M273.8,424.8l1.4,7.9C274.3,430.7,273.8,428.1,273.8,424.8z"/>
		<path d="M164.9,405.4c0.1,12.4,0.2,18.8,0.2,19.4l-9.4,13.3c-2.1,0.3-5.2,0.4-9.4,0.4H82.2c-22.7,0-42-8.1-58.1-24.1
			C8,398.3,0,379,0,356.3V82.2c0-22.6,8-42,24.1-58.1C40.2,8,59.6,0,82.2,0h274.1c22.6,0,42,8,58.1,24.1
			c16.1,16.1,24.1,35.5,24.1,58.1v274.1c0,22.7-8.1,42-24.1,58.1c-16.1,16.1-35.5,24.1-58.1,24.1h-64c-3,0-5.4-0.1-7-0.3l-10.1-5.6
			l-1.4-7.9v-68.2c0-18.5-4.9-32-14.8-40.5c10.9-1.1,20.6-2.9,29.3-5.1c8.7-2.3,17.6-6,26.8-11.1c9.2-5.1,16.9-11.5,23.1-19
			c6.2-7.5,11.2-17.5,15.1-30c3.9-12.5,5.9-26.8,5.9-43c0-23-7.5-42.6-22.6-58.8c7.1-17.3,6.3-36.7-2.3-58.2
			c-5.3-1.7-13-0.7-23.1,3.1c-10.1,3.8-18.9,8-26.3,12.6l-10.9,6.8c-17.7-5-36-7.4-54.8-7.4c-18.9,0-37.1,2.5-54.8,7.4
			c-3.1-2.1-7.1-4.7-12.1-7.7c-5-3-13-6.7-23.8-11c-10.8-4.3-19-5.6-24.6-3.9c-8.4,21.5-9,40.9-2,58.3c-15,16.2-22.5,35.8-22.5,58.8
			c0,16.2,1.9,30.4,5.8,42.8c3.9,12.4,8.9,22.4,15,30c6.1,7.6,13.8,14,23,19.1c9.2,5.1,18.2,8.9,26.8,11.1c8.7,2.3,18.4,4,29.3,5.1
			c-7.6,6.9-12.3,16.7-14,29.4c-4,1.9-8.3,3.3-12.9,4.3c-4.6,1-10,1.4-16.3,1.4c-6.3,0-12.5-2.1-18.7-6.2
			c-6.2-4.1-11.5-10-15.8-17.8c-3.6-6.1-8.2-11-13.8-14.8c-5.6-3.8-10.3-6.1-14.1-6.9l-5.7-0.9c-4,0-6.8,0.4-8.3,1.3
			c-1.5,0.9-2,1.9-1.4,3.3c0.6,1.3,1.4,2.7,2.6,4c1.1,1.3,2.4,2.5,3.7,3.4l2,1.4c4.2,1.9,8.3,5.5,12.4,10.9c4.1,5.3,7.1,10.2,9,14.6
			l2.9,6.6c2.5,7.2,6.7,13.1,12.6,17.6c5.9,4.5,12.3,7.3,19.1,8.6c6.8,1.2,13.5,1.9,19.8,2c6.4,0.1,11.7-0.2,15.8-1l6.6-1.1
			C164.7,383.2,164.8,393,164.9,405.4z"/>
		<path d="M155.6,438.1l9.4-13.3c0,4.2-1.1,7.4-3.1,9.6C159.8,436.6,157.7,437.8,155.6,438.1z"/>
		<path d="M163.3,355.2c0.4,1.9-0.9,3.2-4,4c-3,0.8-4.8,0-5.1-2.3s0.9-3.7,4-4.3C161.2,352.2,162.9,353.1,163.3,355.2z"/>
		<path d="M146.8,358c0,2.1-1.5,3.1-4.6,3.1c-3.2,0.4-4.8-0.7-4.8-3.1c0-2.1,1.5-3.1,4.6-3.1C145.1,354.5,146.8,355.5,146.8,358z"/>
		<path d="M125.1,352c3.1,1,4.3,2.5,3.7,4.6c-0.8,2.3-2.6,2.9-5.4,1.7c-3.2-0.8-4.5-2.2-3.7-4.3C120.4,351.9,122.2,351.3,125.1,352z
			"/>
		<path d="M111.3,344c2.3,2.1,2.7,3.9,1.1,5.4c-1.5,1.7-3.4,1.4-5.7-0.9c-2.5-2.1-2.8-3.9-1.1-5.4
			C107.2,341.5,109.1,341.8,111.3,344z"/>
		<path d="M100.5,332c1.7,2.3,1.7,4.1,0,5.4c-1.5,1.1-3.1,0.5-4.8-2c-1.7-2.5-1.7-4.2,0-5.1C97.4,329,99,329.6,100.5,332z"/>
		<path d="M91.4,320c1.7,2.1,1.9,3.6,0.6,4.6c-1.2,1.3-2.7,1.1-4.6-0.8c-1.7-2.1-1.9-3.6-0.6-4.6C87.9,318,89.5,318.3,91.4,320z"/>
		<path d="M81.1,311.5c1.9,1,2.6,2.1,2,3.4c-0.9,1.3-2.2,1.5-3.7,0.6c-1.9-1-2.6-2.1-2-3.4C77.9,311.1,79.2,310.9,81.1,311.5z"/>
	</g>
	<g>
	</g>
</g>
</svg>
